<?xml version="1.0" standalone="no"?>
<!DOCTYPE svg PUBLIC "-//W3C//DTD SVG 20010904//EN"
 "http://www.w3.org/TR/2001/REC-SVG-20010904/DTD/svg10.dtd">
<svg version="1.0" xmlns="http://www.w3.org/2000/svg"
 width="264.000000pt" height="264.000000pt" viewBox="0 0 264.000000 264.000000"
 preserveAspectRatio="xMidYMid meet">
<metadata>
Created by potrace 1.11, written by Peter Selinger 2001-2013
</metadata>
<g transform="translate(0.000000,264.000000) scale(0.100000,-0.100000)"
fill="#000000" stroke="none">
<path d="M190 2586 c0 -22 5 -36 13 -36 44 0 198 -30 223 -43 81 -42 120 -129
149 -329 16 -110 41 -196 72 -249 40 -68 127 -90 181 -44 54 45 81 138 112
390 12 98 38 168 67 183 32 17 131 21 271 12 251 -16 372 -55 478 -152 104
-97 147 -207 147 -383 1 -105 -15 -175 -56 -245 -26 -46 -84 -106 -125 -132
-23 -14 -32 -27 -30 -41 5 -31 118 -59 223 -54 103 5 174 38 250 118 101 106
142 237 132 419 -5 106 -39 221 -84 293 -94 149 -300 254 -595 303 -88 15
-198 18 -765 21 l-663 4 0 -35z"/>
<path d="M556 1775 c-9 -13 -16 -28 -16 -33 0 -5 21 -30 46 -56 56 -57 54 -61
-54 -97 l-77 -26 -3 -46 c-4 -57 15 -70 62 -42 97 58 140 75 195 75 65 0 106
-18 106 -45 0 -13 -10 -21 -35 -28 -54 -13 -67 -30 -46 -61 20 -31 32 -32 71
-6 38 25 66 25 116 0 41 -21 66 -58 56 -83 -3 -8 -20 -17 -39 -21 -18 -3 -59
-20 -90 -36 -69 -36 -93 -37 -113 -7 -8 13 -26 30 -40 37 -20 11 -28 10 -50
-4 -34 -22 -32 -41 10 -87 19 -22 35 -45 35 -53 0 -18 -34 -39 -95 -60 -93
-30 -118 -67 -77 -115 l17 -21 44 30 c90 61 134 49 82 -21 -39 -53 -41 -92 -5
-116 41 -27 56 -9 77 93 21 107 56 182 103 223 39 34 56 38 74 16 9 -11 9 -22
0 -51 -23 -68 2 -62 93 24 50 46 109 91 143 108 53 26 69 29 154 28 201 -1
436 -78 547 -178 196 -177 184 -647 -21 -798 -108 -80 -294 -135 -481 -145
-144 -7 -299 10 -335 36 -32 23 -54 94 -74 241 -21 158 -40 216 -86 262 -32
32 -44 38 -82 38 -101 0 -155 -85 -188 -300 -25 -162 -45 -225 -84 -264 -39
-39 -122 -65 -232 -73 l-74 -6 0 -38 0 -39 690 0 c742 0 813 4 997 50 302 76
479 237 540 489 24 98 21 277 -6 362 -23 74 -81 168 -132 215 -91 84 -283 186
-429 228 -112 32 -293 62 -455 76 -284 25 -400 54 -455 117 -30 34 -32 39 -28
107 l3 71 -40 0 c-38 0 -41 -2 -53 -40 -25 -76 -58 -83 -101 -20 -33 50 -107
115 -130 115 -10 0 -26 -11 -35 -25z"/>
</g>
</svg>
